# xmcd CD database file
#
# Track frame offsets:
#	150
#	12963
#	34411
#	49510
#	67959
#	98550
#	114475
#	133945
#	154080
#	177630
#	196700
#	213811
#	230114
#	245519
#	261781
#	278430
#
# Disc length: 3926 seconds
#
# Revision: 0
# Processed by: cddbd v1.5.2PL0 Copyright (c) Steve Scherf et al.
# Submitted via: CDex 1.79
#
DISCID=da0f5410
DTITLE=Doug Cox and Sam Hurrie - Revisited
DYEAR=1900
DGENRE=Blues
TTITLE0=Little Martha
TTITLE1=Done Changed My Way Of Living
TTITLE2=Kansas City
TTITLE3=Fear
TTITLE4=Red Haired Raga
TTITLE5=France Blues
TTITLE6=Reconsider Baby
TTITLE7=No Expectations
TTITLE8=Birdland
TTITLE9=John The Revelator
TTITLE10=Bad News
TTITLE11=Carry Me Away
TTITLE12=Beware Of The Man Who Calls You Bro
TTITLE13=Cool Drink Of Water
TTITLE14=Diving Duck Blues
TTITLE15=Mississippi Bottom Blues
EXTD=
EXTT0=
EXTT1=
EXTT2=
EXTT3=
EXTT4=
EXTT5=
EXTT6=
EXTT7=
EXTT8=
EXTT9=
EXTT10=
EXTT11=
EXTT12=
EXTT13=
EXTT14=
EXTT15=
PLAYORDER=
